<svg xmlns="http://www.w3.org/2000/svg" version="1.1" width="512" height="512" viewBox="0 0 215 215"
     preserveAspectRatio="xMidYMid meet">
    <g transform="translate(0,215) scale(0.1,-0.1)" fill="#ffb000" id="light">
        <path d="M999 2097c-53-20-89-48-239-183-274-247-660-661-702-753-24-51-21-125 5-181 57-119 766-843 902-921 60-34 129-38 190-10 110 50 850 790 923 923 29 54 30 145 2 202-25 52-242 301-408 470-169 171-437 413-486 438-50 26-139 33-187 15z m152-101c48-33 391-351 496-460 134-138 315-344 344-391 24-38 24-101 0-140-66-109-818-865-860-865-8 0-11 50-11 176v177l168 171c92 94 169 173 172 176 3 3 65 67 138 141 72 75 132 143 132 152 0 9-11 24-24 32-21 14-28 14-48 3-13-7-139-131-281-274l-257-261v229h0v230l185 188c102 103 185 196 185 205 0 30-20 55-44 55-18 0-64-42-175-156l-151-156v269c0 289-1 293-52 293-49 0-52-19-45-303l6-259-112 118c-211 225-208 222-241 188-34-34-20-56 162-250l179-190 6-234 6-235-47 50c-230 247-480 497-500 502-32 8-65-28-54-58 4-10 138-155 298-322l291-303 7-176c4-108 3-179-3-182-22-14-514 463-739 717-78 88-135 162-143 184-20 61-2 94 153 273 193 222 339 367 675 663 48 43 139 54 184 23z"/>
    </g>
</svg>
